<svg xmlns="http://www.w3.org/2000/svg" width="48" height="36" viewBox="0 0 48 36">
    <g fill="none" fill-rule="evenodd">
        <path stroke="#000" stroke-linecap="round" stroke-linejoin="round" stroke-width="2" d="M15 6v24"/>
        <path fill="#373737" d="M31 6v24a1 1 0 0 0 2 0V6a1 1 0 0 0-2 0z"/>
        <path fill="#373737" d="M13 7h22a1 1 0 0 0 0-2H13a1 1 0 1 0 0 2zM13 31h22a1 1 0 0 0 0-2H13a1 1 0 0 0 0 2zM15.688 14.525l16.228-5.143a1 1 0 1 0-.604-1.907l-16.228 5.143a1 1 0 0 0 .604 1.907zM15.688 19.525l16.228-5.143a1 1 0 1 0-.604-1.907l-16.228 5.143a1 1 0 0 0 .604 1.907zM15.688 24.525l16.228-5.143a1 1 0 0 0-.604-1.907l-16.228 5.143a1 1 0 0 0 .604 1.907z"/>
        <path fill="#373737" d="M15.688 29.525l16.228-5.143a1 1 0 0 0-.604-1.907l-16.228 5.143a1 1 0 0 0 .604 1.907zM32.804 17.98c4.238.846 6.177 2.52 6.177 5.044 0 4.852 4.245 8.217 7.468 6.598a1 1 0 1 0-.898-1.787c-1.768.888-4.57-1.333-4.57-4.81 0-3.651-2.715-5.994-7.785-7.006a1 1 0 0 0-.392 1.962z"/>
    </g>
</svg>
